<svg width="219" height="25" viewBox="0 0 219 25" fill="none" xmlns="http://www.w3.org/2000/svg">
<path d="M0.22 21L5.36 6.1H8.88L14.02 21H11.06L10 17.8H4.24L3.16 21H0.22ZM5.02 15.4H9.22L6.74 7.98H7.5L5.02 15.4ZM15.4583 21V10.12H17.9183V12.26L17.7183 11.88C17.9716 11.2267 18.3849 10.7333 18.9583 10.4C19.5449 10.0533 20.2249 9.88 20.9983 9.88C21.7983 9.88 22.5049 10.0533 23.1183 10.4C23.7449 10.7467 24.2316 11.2333 24.5783 11.86C24.9249 12.4733 25.0983 13.1867 25.0983 14V21H22.4783V14.62C22.4783 14.14 22.3849 13.7267 22.1983 13.38C22.0116 13.0333 21.7516 12.7667 21.4183 12.58C21.0983 12.38 20.7183 12.28 20.2783 12.28C19.8516 12.28 19.4716 12.38 19.1383 12.58C18.8049 12.7667 18.5449 13.0333 18.3583 13.38C18.1716 13.7267 18.0783 14.14 18.0783 14.62V21H15.4583ZM32.3738 21.24C31.3204 21.24 30.3804 20.9933 29.5538 20.5C28.7271 19.9933 28.0738 19.3067 27.5938 18.44C27.1138 17.5733 26.8738 16.6133 26.8738 15.56C26.8738 14.4933 27.1138 13.5333 27.5938 12.68C28.0738 11.8267 28.7271 11.1467 29.5538 10.64C30.3938 10.1333 31.3271 9.88 32.3538 9.88C33.1804 9.88 33.9138 10.0467 34.5538 10.38C35.2071 10.7 35.7204 11.1533 36.0938 11.74L35.6938 12.28V5.86H38.3138V21H35.8338V18.9L36.1138 19.42C35.7404 20.0067 35.2204 20.46 34.5538 20.78C33.8871 21.0867 33.1604 21.24 32.3738 21.24ZM32.6538 18.84C33.2538 18.84 33.7804 18.7 34.2338 18.42C34.6871 18.14 35.0404 17.7533 35.2938 17.26C35.5604 16.7667 35.6938 16.2 35.6938 15.56C35.6938 14.9333 35.5604 14.3733 35.2938 13.88C35.0404 13.3733 34.6871 12.98 34.2338 12.7C33.7804 12.42 33.2538 12.28 32.6538 12.28C32.0671 12.28 31.5404 12.4267 31.0738 12.72C30.6071 13 30.2404 13.3867 29.9738 13.88C29.7204 14.36 29.5938 14.92 29.5938 15.56C29.5938 16.2 29.7204 16.7667 29.9738 17.26C30.2404 17.7533 30.6071 18.14 31.0738 18.42C31.5404 18.7 32.0671 18.84 32.6538 18.84ZM45.9113 21.24C44.7913 21.24 43.8113 20.9867 42.9713 20.48C42.1313 19.9733 41.4779 19.2867 41.0113 18.42C40.5446 17.5533 40.3113 16.5933 40.3113 15.54C40.3113 14.4467 40.5446 13.48 41.0113 12.64C41.4913 11.7867 42.1379 11.1133 42.9513 10.62C43.7779 10.1267 44.6979 9.88 45.7113 9.88C46.5646 9.88 47.3113 10.02 47.9513 10.3C48.6046 10.58 49.1579 10.9667 49.6113 11.46C50.0646 11.9533 50.4113 12.52 50.6513 13.16C50.8913 13.7867 51.0113 14.4667 51.0113 15.2C51.0113 15.3867 50.9979 15.58 50.9713 15.78C50.9579 15.98 50.9246 16.1533 50.8713 16.3H42.4712V14.3H49.3913L48.1513 15.24C48.2713 14.6267 48.2379 14.08 48.0513 13.6C47.8779 13.12 47.5846 12.74 47.1713 12.46C46.7713 12.18 46.2846 12.04 45.7113 12.04C45.1646 12.04 44.6779 12.18 44.2513 12.46C43.8246 12.7267 43.4979 13.1267 43.2713 13.66C43.0579 14.18 42.9779 14.8133 43.0313 15.56C42.9779 16.2267 43.0646 16.82 43.2913 17.34C43.5313 17.8467 43.8779 18.24 44.3313 18.52C44.7979 18.8 45.3313 18.94 45.9313 18.94C46.5313 18.94 47.0379 18.8133 47.4513 18.56C47.8779 18.3067 48.2113 17.9667 48.4513 17.54L50.5713 18.58C50.3579 19.1 50.0246 19.56 49.5713 19.96C49.1179 20.36 48.5779 20.6733 47.9513 20.9C47.3379 21.1267 46.6579 21.24 45.9113 21.24ZM52.9973 21V10.12H55.4573V12.54L55.2573 12.18C55.5107 11.3667 55.904 10.8 56.4373 10.48C56.984 10.16 57.6373 10 58.3973 10H59.0373V12.32H58.0973C57.3507 12.32 56.7507 12.5533 56.2973 13.02C55.844 13.4733 55.6173 14.1133 55.6173 14.94V21H52.9973ZM64.6178 21.24C63.4578 21.24 62.4445 20.9667 61.5778 20.42C60.7245 19.86 60.1378 19.1067 59.8178 18.16L61.7778 17.22C62.0578 17.8333 62.4445 18.3133 62.9378 18.66C63.4445 19.0067 64.0045 19.18 64.6178 19.18C65.0978 19.18 65.4778 19.0733 65.7578 18.86C66.0378 18.6467 66.1778 18.3667 66.1778 18.02C66.1778 17.8067 66.1178 17.6333 65.9978 17.5C65.8911 17.3533 65.7378 17.2333 65.5378 17.14C65.3511 17.0333 65.1445 16.9467 64.9178 16.88L63.1378 16.38C62.2178 16.1133 61.5178 15.7067 61.0378 15.16C60.5711 14.6133 60.3378 13.9667 60.3378 13.22C60.3378 12.5533 60.5045 11.9733 60.8378 11.48C61.1845 10.9733 61.6578 10.58 62.2578 10.3C62.8711 10.02 63.5711 9.88 64.3578 9.88C65.3845 9.88 66.2911 10.1267 67.0778 10.62C67.8645 11.1133 68.4245 11.8067 68.7578 12.7L66.7578 13.64C66.5711 13.1467 66.2578 12.7533 65.8178 12.46C65.3778 12.1667 64.8845 12.02 64.3378 12.02C63.8978 12.02 63.5511 12.12 63.2978 12.32C63.0445 12.52 62.9178 12.78 62.9178 13.1C62.9178 13.3 62.9711 13.4733 63.0778 13.62C63.1845 13.7667 63.3311 13.8867 63.5178 13.98C63.7178 14.0733 63.9445 14.16 64.1978 14.24L65.9378 14.76C66.8311 15.0267 67.5178 15.4267 67.9978 15.96C68.4911 16.4933 68.7378 17.1467 68.7378 17.92C68.7378 18.5733 68.5645 19.1533 68.2178 19.66C67.8711 20.1533 67.3911 20.54 66.7778 20.82C66.1645 21.1 65.4445 21.24 64.6178 21.24ZM76.0713 21.24C75.0046 21.24 74.0313 20.9933 73.1513 20.5C72.2846 20.0067 71.5913 19.3333 71.0713 18.48C70.5646 17.6267 70.3113 16.6533 70.3113 15.56C70.3113 14.4667 70.5646 13.4933 71.0713 12.64C71.5913 11.7867 72.2846 11.1133 73.1513 10.62C74.0179 10.1267 74.9913 9.88 76.0713 9.88C77.1379 9.88 78.1046 10.1267 78.9713 10.62C79.8379 11.1133 80.5246 11.7867 81.0313 12.64C81.5513 13.48 81.8113 14.4533 81.8113 15.56C81.8113 16.6533 81.5513 17.6267 81.0313 18.48C80.5113 19.3333 79.8179 20.0067 78.9513 20.5C78.0846 20.9933 77.1246 21.24 76.0713 21.24ZM76.0713 18.84C76.6579 18.84 77.1713 18.7 77.6113 18.42C78.0646 18.14 78.4179 17.7533 78.6713 17.26C78.9379 16.7533 79.0713 16.1867 79.0713 15.56C79.0713 14.92 78.9379 14.36 78.6713 13.88C78.4179 13.3867 78.0646 13 77.6113 12.72C77.1713 12.4267 76.6579 12.28 76.0713 12.28C75.4713 12.28 74.9446 12.4267 74.4913 12.72C74.0379 13 73.6779 13.3867 73.4113 13.88C73.1579 14.36 73.0313 14.92 73.0313 15.56C73.0313 16.1867 73.1579 16.7533 73.4113 17.26C73.6779 17.7533 74.0379 18.14 74.4913 18.42C74.9446 18.7 75.4713 18.84 76.0713 18.84ZM83.7981 21V10.12H86.2581V12.26L86.0581 11.88C86.3115 11.2267 86.7248 10.7333 87.2981 10.4C87.8848 10.0533 88.5648 9.88 89.3381 9.88C90.1381 9.88 90.8448 10.0533 91.4581 10.4C92.0848 10.7467 92.5715 11.2333 92.9181 11.86C93.2648 12.4733 93.4381 13.1867 93.4381 14V21H90.8181V14.62C90.8181 14.14 90.7248 13.7267 90.5381 13.38C90.3515 13.0333 90.0915 12.7667 89.7581 12.58C89.4381 12.38 89.0581 12.28 88.6181 12.28C88.1915 12.28 87.8115 12.38 87.4781 12.58C87.1448 12.7667 86.8848 13.0333 86.6981 13.38C86.5115 13.7267 86.4181 14.14 86.4181 14.62V21H83.7981ZM106.428 21.24C105.362 21.24 104.375 21.0467 103.468 20.66C102.575 20.2733 101.788 19.7333 101.108 19.04C100.442 18.3467 99.9216 17.5333 99.5483 16.6C99.1749 15.6667 98.9883 14.6467 98.9883 13.54C98.9883 12.4333 99.1683 11.4133 99.5283 10.48C99.9016 9.53333 100.422 8.72 101.088 8.04C101.768 7.34667 102.562 6.81333 103.468 6.44C104.375 6.05333 105.362 5.86 106.428 5.86C107.495 5.86 108.448 6.04 109.288 6.4C110.142 6.76 110.862 7.24 111.448 7.84C112.035 8.42667 112.455 9.07333 112.708 9.78L110.268 10.92C109.988 10.1733 109.515 9.56 108.848 9.08C108.182 8.58667 107.375 8.34 106.428 8.34C105.495 8.34 104.668 8.56 103.948 9C103.242 9.44 102.688 10.0467 102.288 10.82C101.902 11.5933 101.708 12.5 101.708 13.54C101.708 14.58 101.902 15.4933 102.288 16.28C102.688 17.0533 103.242 17.66 103.948 18.1C104.668 18.54 105.495 18.76 106.428 18.76C107.375 18.76 108.182 18.52 108.848 18.04C109.515 17.5467 109.988 16.9267 110.268 16.18L112.708 17.32C112.455 18.0267 112.035 18.68 111.448 19.28C110.862 19.8667 110.142 20.34 109.288 20.7C108.448 21.06 107.495 21.24 106.428 21.24ZM117.801 21.24C117.041 21.24 116.381 21.1133 115.821 20.86C115.261 20.6067 114.828 20.2467 114.521 19.78C114.215 19.3 114.061 18.7467 114.061 18.12C114.061 17.52 114.195 16.9867 114.461 16.52C114.728 16.04 115.141 15.64 115.701 15.32C116.261 15 116.968 14.7733 117.821 14.64L121.381 14.06V16.06L118.321 16.58C117.801 16.6733 117.415 16.84 117.161 17.08C116.908 17.32 116.781 17.6333 116.781 18.02C116.781 18.3933 116.921 18.6933 117.201 18.92C117.495 19.1333 117.855 19.24 118.281 19.24C118.828 19.24 119.308 19.1267 119.721 18.9C120.148 18.66 120.475 18.3333 120.701 17.92C120.941 17.5067 121.061 17.0533 121.061 16.56V13.76C121.061 13.2933 120.875 12.9067 120.501 12.6C120.141 12.28 119.661 12.12 119.061 12.12C118.501 12.12 118.001 12.2733 117.561 12.58C117.135 12.8733 116.821 13.2667 116.621 13.76L114.481 12.72C114.695 12.1467 115.028 11.6533 115.481 11.24C115.948 10.8133 116.495 10.48 117.121 10.24C117.748 10 118.428 9.88 119.161 9.88C120.055 9.88 120.841 10.0467 121.521 10.38C122.201 10.7 122.728 11.1533 123.101 11.74C123.488 12.3133 123.681 12.9867 123.681 13.76V21H121.201V19.14L121.761 19.1C121.481 19.5667 121.148 19.96 120.761 20.28C120.375 20.5867 119.935 20.8267 119.441 21C118.948 21.16 118.401 21.24 117.801 21.24ZM132.043 21.24C131.256 21.24 130.529 21.0867 129.863 20.78C129.209 20.46 128.689 20.0067 128.303 19.42L128.563 18.9V21H126.103V5.86H128.723V12.28L128.323 11.74C128.696 11.1533 129.203 10.7 129.843 10.38C130.483 10.0467 131.223 9.88 132.063 9.88C133.089 9.88 134.016 10.1333 134.843 10.64C135.669 11.1467 136.323 11.8267 136.803 12.68C137.296 13.5333 137.543 14.4933 137.543 15.56C137.543 16.6133 137.303 17.5733 136.823 18.44C136.343 19.3067 135.689 19.9933 134.863 20.5C134.036 20.9933 133.096 21.24 132.043 21.24ZM131.743 18.84C132.343 18.84 132.876 18.7 133.343 18.42C133.809 18.14 134.169 17.7533 134.423 17.26C134.689 16.7667 134.823 16.2 134.823 15.56C134.823 14.92 134.689 14.36 134.423 13.88C134.169 13.3867 133.809 13 133.343 12.72C132.876 12.4267 132.343 12.28 131.743 12.28C131.169 12.28 130.649 12.42 130.183 12.7C129.729 12.98 129.369 13.3733 129.103 13.88C128.849 14.3733 128.723 14.9333 128.723 15.56C128.723 16.2 128.849 16.7667 129.103 17.26C129.369 17.7533 129.729 18.14 130.183 18.42C130.649 18.7 131.169 18.84 131.743 18.84ZM144.7 21.24C143.58 21.24 142.6 20.9867 141.76 20.48C140.92 19.9733 140.267 19.2867 139.8 18.42C139.334 17.5533 139.1 16.5933 139.1 15.54C139.1 14.4467 139.334 13.48 139.8 12.64C140.28 11.7867 140.927 11.1133 141.74 10.62C142.567 10.1267 143.487 9.88 144.5 9.88C145.354 9.88 146.1 10.02 146.74 10.3C147.394 10.58 147.947 10.9667 148.4 11.46C148.854 11.9533 149.2 12.52 149.44 13.16C149.68 13.7867 149.8 14.4667 149.8 15.2C149.8 15.3867 149.787 15.58 149.76 15.78C149.747 15.98 149.714 16.1533 149.66 16.3H141.26V14.3H148.18L146.94 15.24C147.06 14.6267 147.027 14.08 146.84 13.6C146.667 13.12 146.374 12.74 145.96 12.46C145.56 12.18 145.074 12.04 144.5 12.04C143.954 12.04 143.467 12.18 143.04 12.46C142.614 12.7267 142.287 13.1267 142.06 13.66C141.847 14.18 141.767 14.8133 141.82 15.56C141.767 16.2267 141.854 16.82 142.08 17.34C142.32 17.8467 142.667 18.24 143.12 18.52C143.587 18.8 144.12 18.94 144.72 18.94C145.32 18.94 145.827 18.8133 146.24 18.56C146.667 18.3067 147 17.9667 147.24 17.54L149.36 18.58C149.147 19.1 148.814 19.56 148.36 19.96C147.907 20.36 147.367 20.6733 146.74 20.9C146.127 21.1267 145.447 21.24 144.7 21.24ZM151.786 21V5.86H154.406V21H151.786ZM161.985 21.24C160.865 21.24 159.885 20.9867 159.045 20.48C158.205 19.9733 157.552 19.2867 157.085 18.42C156.619 17.5533 156.385 16.5933 156.385 15.54C156.385 14.4467 156.619 13.48 157.085 12.64C157.565 11.7867 158.212 11.1133 159.025 10.62C159.852 10.1267 160.772 9.88 161.785 9.88C162.639 9.88 163.385 10.02 164.025 10.3C164.679 10.58 165.232 10.9667 165.685 11.46C166.139 11.9533 166.485 12.52 166.725 13.16C166.965 13.7867 167.085 14.4667 167.085 15.2C167.085 15.3867 167.072 15.58 167.045 15.78C167.032 15.98 166.999 16.1533 166.945 16.3H158.545V14.3H165.465L164.225 15.24C164.345 14.6267 164.312 14.08 164.125 13.6C163.952 13.12 163.659 12.74 163.245 12.46C162.845 12.18 162.359 12.04 161.785 12.04C161.239 12.04 160.752 12.18 160.325 12.46C159.899 12.7267 159.572 13.1267 159.345 13.66C159.132 14.18 159.052 14.8133 159.105 15.56C159.052 16.2267 159.139 16.82 159.365 17.34C159.605 17.8467 159.952 18.24 160.405 18.52C160.872 18.8 161.405 18.94 162.005 18.94C162.605 18.94 163.112 18.8133 163.525 18.56C163.952 18.3067 164.285 17.9667 164.525 17.54L166.645 18.58C166.432 19.1 166.099 19.56 165.645 19.96C165.192 20.36 164.652 20.6733 164.025 20.9C163.412 21.1267 162.732 21.24 161.985 21.24ZM169.072 21V10.12H171.692V21H169.072ZM169.072 8.9V6.1H171.692V8.9H169.072ZM174.111 21V10.12H176.571V12.54L176.371 12.18C176.624 11.3667 177.017 10.8 177.551 10.48C178.097 10.16 178.751 10 179.511 10H180.151V12.32H179.211C178.464 12.32 177.864 12.5533 177.411 13.02C176.957 13.4733 176.731 14.1133 176.731 14.94V21H174.111ZM186.751 21.24C185.631 21.24 184.651 20.9867 183.811 20.48C182.971 19.9733 182.318 19.2867 181.851 18.42C181.384 17.5533 181.151 16.5933 181.151 15.54C181.151 14.4467 181.384 13.48 181.851 12.64C182.331 11.7867 182.978 11.1133 183.791 10.62C184.618 10.1267 185.538 9.88 186.551 9.88C187.404 9.88 188.151 10.02 188.791 10.3C189.444 10.58 189.998 10.9667 190.451 11.46C190.904 11.9533 191.251 12.52 191.491 13.16C191.731 13.7867 191.851 14.4667 191.851 15.2C191.851 15.3867 191.838 15.58 191.811 15.78C191.798 15.98 191.764 16.1533 191.711 16.3H183.311V14.3H190.231L188.991 15.24C189.111 14.6267 189.078 14.08 188.891 13.6C188.718 13.12 188.424 12.74 188.011 12.46C187.611 12.18 187.124 12.04 186.551 12.04C186.004 12.04 185.518 12.18 185.091 12.46C184.664 12.7267 184.338 13.1267 184.111 13.66C183.898 14.18 183.818 14.8133 183.871 15.56C183.818 16.2267 183.904 16.82 184.131 17.34C184.371 17.8467 184.718 18.24 185.171 18.52C185.638 18.8 186.171 18.94 186.771 18.94C187.371 18.94 187.878 18.8133 188.291 18.56C188.718 18.3067 189.051 17.9667 189.291 17.54L191.411 18.58C191.198 19.1 190.864 19.56 190.411 19.96C189.958 20.36 189.418 20.6733 188.791 20.9C188.178 21.1267 187.498 21.24 186.751 21.24ZM193.837 21V10.12H196.457V21H193.837ZM193.837 8.9V6.1H196.457V8.9H193.837ZM198.876 21V10.12H201.336V12.54L201.136 12.18C201.39 11.3667 201.783 10.8 202.316 10.48C202.863 10.16 203.516 10 204.276 10H204.916V12.32H203.976C203.23 12.32 202.63 12.5533 202.176 13.02C201.723 13.4733 201.496 14.1133 201.496 14.94V21H198.876ZM211.677 21.24C210.61 21.24 209.637 20.9933 208.757 20.5C207.89 20.0067 207.197 19.3333 206.677 18.48C206.17 17.6267 205.917 16.6533 205.917 15.56C205.917 14.4667 206.17 13.4933 206.677 12.64C207.197 11.7867 207.89 11.1133 208.757 10.62C209.623 10.1267 210.597 9.88 211.677 9.88C212.743 9.88 213.71 10.1267 214.577 10.62C215.443 11.1133 216.13 11.7867 216.637 12.64C217.157 13.48 217.417 14.4533 217.417 15.56C217.417 16.6533 217.157 17.6267 216.637 18.48C216.117 19.3333 215.423 20.0067 214.557 20.5C213.69 20.9933 212.73 21.24 211.677 21.24ZM211.677 18.84C212.263 18.84 212.777 18.7 213.217 18.42C213.67 18.14 214.023 17.7533 214.277 17.26C214.543 16.7533 214.677 16.1867 214.677 15.56C214.677 14.92 214.543 14.36 214.277 13.88C214.023 13.3867 213.67 13 213.217 12.72C212.777 12.4267 212.263 12.28 211.677 12.28C211.077 12.28 210.55 12.4267 210.097 12.72C209.643 13 209.283 13.3867 209.017 13.88C208.763 14.36 208.637 14.92 208.637 15.56C208.637 16.1867 208.763 16.7533 209.017 17.26C209.283 17.7533 209.643 18.14 210.097 18.42C210.55 18.7 211.077 18.84 211.677 18.84Z" fill="black"/>
</svg>
