<svg width="188" height="16" viewBox="0 0 188 16" fill="none" xmlns="http://www.w3.org/2000/svg">
<path d="M5.86808e-05 15.1401V0.240135H6.28006C7.26673 0.240135 8.10673 0.413469 8.80006 0.760136C9.50673 1.09347 10.0467 1.57347 10.4201 2.20014C10.8067 2.81347 11.0001 3.56014 11.0001 4.44014C11.0001 5.12014 10.8134 5.76014 10.4401 6.36014C10.0801 6.9468 9.50006 7.43347 8.70006 7.82014V6.56014C9.43339 6.84014 10.0134 7.1868 10.4401 7.60014C10.8667 8.01347 11.1667 8.47347 11.3401 8.98014C11.5134 9.4868 11.6001 10.0201 11.6001 10.5801C11.6001 12.0068 11.1267 13.1268 10.1801 13.9401C9.24673 14.7401 7.94673 15.1401 6.28006 15.1401H5.86808e-05ZM2.72006 12.7401H6.56006C7.26673 12.7401 7.82673 12.5468 8.24006 12.1601C8.66673 11.7601 8.88006 11.2335 8.88006 10.5801C8.88006 9.9268 8.66673 9.40014 8.24006 9.00014C7.82673 8.60014 7.26673 8.40014 6.56006 8.40014H2.72006V12.7401ZM2.72006 6.02014H6.42006C6.98006 6.02014 7.42673 5.86014 7.76006 5.54014C8.09339 5.2068 8.26006 4.78014 8.26006 4.26014C8.26006 3.74014 8.09339 3.3268 7.76006 3.02014C7.42673 2.71347 6.98006 2.56014 6.42006 2.56014H2.72006V6.02014ZM16.9082 15.3801C16.1482 15.3801 15.4882 15.2535 14.9282 15.0001C14.3682 14.7468 13.9349 14.3868 13.6282 13.9201C13.3215 13.4401 13.1682 12.8868 13.1682 12.2601C13.1682 11.6601 13.3015 11.1268 13.5682 10.6601C13.8349 10.1801 14.2482 9.78014 14.8082 9.46014C15.3682 9.14014 16.0749 8.91347 16.9282 8.78014L20.4882 8.20014V10.2001L17.4282 10.7201C16.9082 10.8135 16.5215 10.9801 16.2682 11.2201C16.0149 11.4601 15.8882 11.7735 15.8882 12.1601C15.8882 12.5335 16.0282 12.8335 16.3082 13.0601C16.6015 13.2735 16.9615 13.3801 17.3882 13.3801C17.9349 13.3801 18.4149 13.2668 18.8282 13.0401C19.2549 12.8001 19.5815 12.4735 19.8082 12.0601C20.0482 11.6468 20.1682 11.1935 20.1682 10.7001V7.90014C20.1682 7.43347 19.9815 7.0468 19.6082 6.74014C19.2482 6.42014 18.7682 6.26014 18.1682 6.26014C17.6082 6.26014 17.1082 6.41347 16.6682 6.72014C16.2415 7.01347 15.9282 7.4068 15.7282 7.90014L13.5882 6.86014C13.8015 6.2868 14.1349 5.79347 14.5882 5.38014C15.0549 4.95347 15.6015 4.62014 16.2282 4.38014C16.8549 4.14014 17.5349 4.02014 18.2682 4.02014C19.1615 4.02014 19.9482 4.1868 20.6282 4.52014C21.3082 4.84014 21.8349 5.29347 22.2082 5.88014C22.5949 6.45347 22.7882 7.1268 22.7882 7.90014V15.1401H20.3082V13.2801L20.8682 13.2401C20.5882 13.7068 20.2549 14.1001 19.8682 14.4201C19.4815 14.7268 19.0415 14.9668 18.5482 15.1401C18.0549 15.3001 17.5082 15.3801 16.9082 15.3801ZM25.2097 15.1401V4.26014H27.6697V6.68014L27.4697 6.32014C27.7231 5.5068 28.1164 4.94014 28.6497 4.62014C29.1964 4.30014 29.8497 4.14014 30.6097 4.14014H31.2497V6.46014H30.3097C29.5631 6.46014 28.9631 6.69347 28.5097 7.16014C28.0564 7.61347 27.8297 8.25347 27.8297 9.08014V15.1401H25.2097ZM38.6302 15.3801C37.8435 15.3801 37.1169 15.2268 36.4502 14.9201C35.7969 14.6001 35.2769 14.1468 34.8902 13.5601L35.1502 13.0401V15.1401H32.6902V0.000136137H35.3102V6.42014L34.9102 5.88014C35.2835 5.29347 35.7902 4.84014 36.4302 4.52014C37.0702 4.1868 37.8102 4.02014 38.6502 4.02014C39.6769 4.02014 40.6035 4.27347 41.4302 4.78014C42.2569 5.2868 42.9102 5.9668 43.3902 6.82014C43.8835 7.67347 44.1302 8.63347 44.1302 9.70014C44.1302 10.7535 43.8902 11.7135 43.4102 12.5801C42.9302 13.4468 42.2769 14.1335 41.4502 14.6401C40.6235 15.1335 39.6835 15.3801 38.6302 15.3801ZM38.3302 12.9801C38.9302 12.9801 39.4635 12.8401 39.9302 12.5601C40.3969 12.2801 40.7569 11.8935 41.0102 11.4001C41.2769 10.9068 41.4102 10.3401 41.4102 9.70014C41.4102 9.06014 41.2769 8.50014 41.0102 8.02014C40.7569 7.5268 40.3969 7.14014 39.9302 6.86014C39.4635 6.5668 38.9302 6.42014 38.3302 6.42014C37.7569 6.42014 37.2369 6.56014 36.7702 6.84014C36.3169 7.12014 35.9569 7.51347 35.6902 8.02014C35.4369 8.51347 35.3102 9.07347 35.3102 9.70014C35.3102 10.3401 35.4369 10.9068 35.6902 11.4001C35.9569 11.8935 36.3169 12.2801 36.7702 12.5601C37.2369 12.8401 37.7569 12.9801 38.3302 12.9801ZM51.2877 15.3801C50.1677 15.3801 49.1877 15.1268 48.3477 14.6201C47.5077 14.1135 46.8544 13.4268 46.3877 12.5601C45.921 11.6935 45.6877 10.7335 45.6877 9.68014C45.6877 8.5868 45.921 7.62014 46.3877 6.78014C46.8677 5.9268 47.5144 5.25347 48.3277 4.76014C49.1544 4.2668 50.0744 4.02014 51.0877 4.02014C51.941 4.02014 52.6877 4.16014 53.3277 4.44014C53.981 4.72014 54.5344 5.1068 54.9877 5.60014C55.441 6.09347 55.7877 6.66014 56.0277 7.30014C56.2677 7.9268 56.3877 8.6068 56.3877 9.34014C56.3877 9.5268 56.3744 9.72014 56.3477 9.92014C56.3344 10.1201 56.301 10.2935 56.2477 10.4401H47.8477V8.44014H54.7677L53.5277 9.38014C53.6477 8.7668 53.6144 8.22014 53.4277 7.74014C53.2544 7.26014 52.961 6.88014 52.5477 6.60014C52.1477 6.32014 51.661 6.18014 51.0877 6.18014C50.541 6.18014 50.0544 6.32014 49.6277 6.60014C49.201 6.8668 48.8744 7.2668 48.6477 7.80014C48.4344 8.32014 48.3544 8.95347 48.4077 9.70014C48.3544 10.3668 48.441 10.9601 48.6677 11.4801C48.9077 11.9868 49.2544 12.3801 49.7077 12.6601C50.1744 12.9401 50.7077 13.0801 51.3077 13.0801C51.9077 13.0801 52.4144 12.9535 52.8277 12.7001C53.2544 12.4468 53.5877 12.1068 53.8277 11.6801L55.9477 12.7201C55.7344 13.2401 55.401 13.7001 54.9477 14.1001C54.4944 14.5001 53.9544 14.8135 53.3277 15.0401C52.7144 15.2668 52.0344 15.3801 51.2877 15.3801ZM58.3738 15.1401V4.26014H60.8338V6.68014L60.6338 6.32014C60.8871 5.5068 61.2805 4.94014 61.8138 4.62014C62.3605 4.30014 63.0138 4.14014 63.7738 4.14014H64.4138V6.46014H63.4738C62.7271 6.46014 62.1271 6.69347 61.6738 7.16014C61.2205 7.61347 60.9938 8.25347 60.9938 9.08014V15.1401H58.3738ZM76.629 15.3801C75.5623 15.3801 74.5756 15.1868 73.669 14.8001C72.7756 14.4135 71.989 13.8735 71.309 13.1801C70.6423 12.4868 70.1223 11.6735 69.749 10.7401C69.3756 9.8068 69.189 8.7868 69.189 7.68014C69.189 6.57347 69.369 5.55347 69.729 4.62014C70.1023 3.67347 70.6223 2.86014 71.289 2.18014C71.969 1.4868 72.7623 0.953469 73.669 0.580136C74.5756 0.193469 75.5623 0.000136137 76.629 0.000136137C77.6956 0.000136137 78.649 0.180136 79.489 0.540136C80.3423 0.900136 81.0623 1.38014 81.649 1.98014C82.2356 2.5668 82.6556 3.21347 82.909 3.92014L80.469 5.06014C80.189 4.31347 79.7156 3.70014 79.049 3.22014C78.3823 2.7268 77.5756 2.48014 76.629 2.48014C75.6956 2.48014 74.869 2.70014 74.149 3.14014C73.4423 3.58014 72.889 4.1868 72.489 4.96014C72.1023 5.73347 71.909 6.64014 71.909 7.68014C71.909 8.72014 72.1023 9.63347 72.489 10.4201C72.889 11.1935 73.4423 11.8001 74.149 12.2401C74.869 12.6801 75.6956 12.9001 76.629 12.9001C77.5756 12.9001 78.3823 12.6601 79.049 12.1801C79.7156 11.6868 80.189 11.0668 80.469 10.3201L82.909 11.4601C82.6556 12.1668 82.2356 12.8201 81.649 13.4201C81.0623 14.0068 80.3423 14.4801 79.489 14.8401C78.649 15.2001 77.6956 15.3801 76.629 15.3801ZM88.0019 15.3801C87.2419 15.3801 86.5819 15.2535 86.0219 15.0001C85.4619 14.7468 85.0286 14.3868 84.7219 13.9201C84.4153 13.4401 84.2619 12.8868 84.2619 12.2601C84.2619 11.6601 84.3953 11.1268 84.6619 10.6601C84.9286 10.1801 85.3419 9.78014 85.9019 9.46014C86.4619 9.14014 87.1686 8.91347 88.0219 8.78014L91.5819 8.20014V10.2001L88.5219 10.7201C88.0019 10.8135 87.6153 10.9801 87.3619 11.2201C87.1086 11.4601 86.9819 11.7735 86.9819 12.1601C86.9819 12.5335 87.1219 12.8335 87.4019 13.0601C87.6953 13.2735 88.0553 13.3801 88.4819 13.3801C89.0286 13.3801 89.5086 13.2668 89.9219 13.0401C90.3486 12.8001 90.6753 12.4735 90.9019 12.0601C91.1419 11.6468 91.2619 11.1935 91.2619 10.7001V7.90014C91.2619 7.43347 91.0753 7.0468 90.7019 6.74014C90.3419 6.42014 89.8619 6.26014 89.2619 6.26014C88.7019 6.26014 88.2019 6.41347 87.7619 6.72014C87.3353 7.01347 87.0219 7.4068 86.8219 7.90014L84.6819 6.86014C84.8953 6.2868 85.2286 5.79347 85.6819 5.38014C86.1486 4.95347 86.6953 4.62014 87.3219 4.38014C87.9486 4.14014 88.6286 4.02014 89.3619 4.02014C90.2553 4.02014 91.0419 4.1868 91.7219 4.52014C92.4019 4.84014 92.9286 5.29347 93.3019 5.88014C93.6886 6.45347 93.8819 7.1268 93.8819 7.90014V15.1401H91.4019V13.2801L91.9619 13.2401C91.6819 13.7068 91.3486 14.1001 90.9619 14.4201C90.5753 14.7268 90.1353 14.9668 89.6419 15.1401C89.1486 15.3001 88.6019 15.3801 88.0019 15.3801ZM102.243 15.3801C101.457 15.3801 100.73 15.2268 100.063 14.9201C99.4102 14.6001 98.8902 14.1468 98.5035 13.5601L98.7635 13.0401V15.1401H96.3035V0.000136137H98.9235V6.42014L98.5235 5.88014C98.8968 5.29347 99.4035 4.84014 100.043 4.52014C100.683 4.1868 101.423 4.02014 102.263 4.02014C103.29 4.02014 104.217 4.27347 105.043 4.78014C105.87 5.2868 106.523 5.9668 107.003 6.82014C107.497 7.67347 107.743 8.63347 107.743 9.70014C107.743 10.7535 107.503 11.7135 107.023 12.5801C106.543 13.4468 105.89 14.1335 105.063 14.6401C104.237 15.1335 103.297 15.3801 102.243 15.3801ZM101.943 12.9801C102.543 12.9801 103.077 12.8401 103.543 12.5601C104.01 12.2801 104.37 11.8935 104.623 11.4001C104.89 10.9068 105.023 10.3401 105.023 9.70014C105.023 9.06014 104.89 8.50014 104.623 8.02014C104.37 7.5268 104.01 7.14014 103.543 6.86014C103.077 6.5668 102.543 6.42014 101.943 6.42014C101.37 6.42014 100.85 6.56014 100.383 6.84014C99.9302 7.12014 99.5702 7.51347 99.3035 8.02014C99.0502 8.51347 98.9235 9.07347 98.9235 9.70014C98.9235 10.3401 99.0502 10.9068 99.3035 11.4001C99.5702 11.8935 99.9302 12.2801 100.383 12.5601C100.85 12.8401 101.37 12.9801 101.943 12.9801ZM114.901 15.3801C113.781 15.3801 112.801 15.1268 111.961 14.6201C111.121 14.1135 110.468 13.4268 110.001 12.5601C109.534 11.6935 109.301 10.7335 109.301 9.68014C109.301 8.5868 109.534 7.62014 110.001 6.78014C110.481 5.9268 111.128 5.25347 111.941 4.76014C112.768 4.2668 113.688 4.02014 114.701 4.02014C115.554 4.02014 116.301 4.16014 116.941 4.44014C117.594 4.72014 118.148 5.1068 118.601 5.60014C119.054 6.09347 119.401 6.66014 119.641 7.30014C119.881 7.9268 120.001 8.6068 120.001 9.34014C120.001 9.5268 119.988 9.72014 119.961 9.92014C119.948 10.1201 119.914 10.2935 119.861 10.4401H111.461V8.44014H118.381L117.141 9.38014C117.261 8.7668 117.228 8.22014 117.041 7.74014C116.868 7.26014 116.574 6.88014 116.161 6.60014C115.761 6.32014 115.274 6.18014 114.701 6.18014C114.154 6.18014 113.668 6.32014 113.241 6.60014C112.814 6.8668 112.488 7.2668 112.261 7.80014C112.048 8.32014 111.968 8.95347 112.021 9.70014C111.968 10.3668 112.054 10.9601 112.281 11.4801C112.521 11.9868 112.868 12.3801 113.321 12.6601C113.788 12.9401 114.321 13.0801 114.921 13.0801C115.521 13.0801 116.028 12.9535 116.441 12.7001C116.868 12.4468 117.201 12.1068 117.441 11.6801L119.561 12.7201C119.348 13.2401 119.014 13.7001 118.561 14.1001C118.108 14.5001 117.568 14.8135 116.941 15.0401C116.328 15.2668 115.648 15.3801 114.901 15.3801ZM121.987 15.1401V0.000136137H124.607V15.1401H121.987ZM132.186 15.3801C131.066 15.3801 130.086 15.1268 129.246 14.6201C128.406 14.1135 127.753 13.4268 127.286 12.5601C126.819 11.6935 126.586 10.7335 126.586 9.68014C126.586 8.5868 126.819 7.62014 127.286 6.78014C127.766 5.9268 128.413 5.25347 129.226 4.76014C130.053 4.2668 130.973 4.02014 131.986 4.02014C132.839 4.02014 133.586 4.16014 134.226 4.44014C134.879 4.72014 135.433 5.1068 135.886 5.60014C136.339 6.09347 136.686 6.66014 136.926 7.30014C137.166 7.9268 137.286 8.6068 137.286 9.34014C137.286 9.5268 137.273 9.72014 137.246 9.92014C137.233 10.1201 137.199 10.2935 137.146 10.4401H128.746V8.44014H135.666L134.426 9.38014C134.546 8.7668 134.513 8.22014 134.326 7.74014C134.153 7.26014 133.859 6.88014 133.446 6.60014C133.046 6.32014 132.559 6.18014 131.986 6.18014C131.439 6.18014 130.953 6.32014 130.526 6.60014C130.099 6.8668 129.773 7.2668 129.546 7.80014C129.333 8.32014 129.253 8.95347 129.306 9.70014C129.253 10.3668 129.339 10.9601 129.566 11.4801C129.806 11.9868 130.153 12.3801 130.606 12.6601C131.073 12.9401 131.606 13.0801 132.206 13.0801C132.806 13.0801 133.313 12.9535 133.726 12.7001C134.153 12.4468 134.486 12.1068 134.726 11.6801L136.846 12.7201C136.633 13.2401 136.299 13.7001 135.846 14.1001C135.393 14.5001 134.853 14.8135 134.226 15.0401C133.613 15.2668 132.933 15.3801 132.186 15.3801ZM139.272 15.1401V4.26014H141.892V15.1401H139.272ZM139.272 3.04014V0.240135H141.892V3.04014H139.272ZM144.311 15.1401V4.26014H146.771V6.68014L146.571 6.32014C146.825 5.5068 147.218 4.94014 147.751 4.62014C148.298 4.30014 148.951 4.14014 149.711 4.14014H150.351V6.46014H149.411C148.665 6.46014 148.065 6.69347 147.611 7.16014C147.158 7.61347 146.931 8.25347 146.931 9.08014V15.1401H144.311ZM156.952 15.3801C155.832 15.3801 154.852 15.1268 154.012 14.6201C153.172 14.1135 152.518 13.4268 152.052 12.5601C151.585 11.6935 151.352 10.7335 151.352 9.68014C151.352 8.5868 151.585 7.62014 152.052 6.78014C152.532 5.9268 153.178 5.25347 153.992 4.76014C154.818 4.2668 155.738 4.02014 156.752 4.02014C157.605 4.02014 158.352 4.16014 158.992 4.44014C159.645 4.72014 160.198 5.1068 160.652 5.60014C161.105 6.09347 161.452 6.66014 161.692 7.30014C161.932 7.9268 162.052 8.6068 162.052 9.34014C162.052 9.5268 162.038 9.72014 162.012 9.92014C161.998 10.1201 161.965 10.2935 161.912 10.4401H153.512V8.44014H160.432L159.192 9.38014C159.312 8.7668 159.278 8.22014 159.092 7.74014C158.918 7.26014 158.625 6.88014 158.212 6.60014C157.812 6.32014 157.325 6.18014 156.752 6.18014C156.205 6.18014 155.718 6.32014 155.292 6.60014C154.865 6.8668 154.538 7.2668 154.312 7.80014C154.098 8.32014 154.018 8.95347 154.072 9.70014C154.018 10.3668 154.105 10.9601 154.332 11.4801C154.572 11.9868 154.918 12.3801 155.372 12.6601C155.838 12.9401 156.372 13.0801 156.972 13.0801C157.572 13.0801 158.078 12.9535 158.492 12.7001C158.918 12.4468 159.252 12.1068 159.492 11.6801L161.612 12.7201C161.398 13.2401 161.065 13.7001 160.612 14.1001C160.158 14.5001 159.618 14.8135 158.992 15.0401C158.378 15.2668 157.698 15.3801 156.952 15.3801ZM164.038 15.1401V4.26014H166.658V15.1401H164.038ZM164.038 3.04014V0.240135H166.658V3.04014H164.038ZM169.077 15.1401V4.26014H171.537V6.68014L171.337 6.32014C171.59 5.5068 171.984 4.94014 172.517 4.62014C173.064 4.30014 173.717 4.14014 174.477 4.14014H175.117V6.46014H174.177C173.43 6.46014 172.83 6.69347 172.377 7.16014C171.924 7.61347 171.697 8.25347 171.697 9.08014V15.1401H169.077ZM181.877 15.3801C180.811 15.3801 179.837 15.1335 178.957 14.6401C178.091 14.1468 177.397 13.4735 176.877 12.6201C176.371 11.7668 176.117 10.7935 176.117 9.70014C176.117 8.6068 176.371 7.63347 176.877 6.78014C177.397 5.9268 178.091 5.25347 178.957 4.76014C179.824 4.2668 180.797 4.02014 181.877 4.02014C182.944 4.02014 183.911 4.2668 184.777 4.76014C185.644 5.25347 186.331 5.9268 186.837 6.78014C187.357 7.62014 187.617 8.59347 187.617 9.70014C187.617 10.7935 187.357 11.7668 186.837 12.6201C186.317 13.4735 185.624 14.1468 184.757 14.6401C183.891 15.1335 182.931 15.3801 181.877 15.3801ZM181.877 12.9801C182.464 12.9801 182.977 12.8401 183.417 12.5601C183.871 12.2801 184.224 11.8935 184.477 11.4001C184.744 10.8935 184.877 10.3268 184.877 9.70014C184.877 9.06014 184.744 8.50014 184.477 8.02014C184.224 7.5268 183.871 7.14014 183.417 6.86014C182.977 6.5668 182.464 6.42014 181.877 6.42014C181.277 6.42014 180.751 6.5668 180.297 6.86014C179.844 7.14014 179.484 7.5268 179.217 8.02014C178.964 8.50014 178.837 9.06014 178.837 9.70014C178.837 10.3268 178.964 10.8935 179.217 11.4001C179.484 11.8935 179.844 12.2801 180.297 12.5601C180.751 12.8401 181.277 12.9801 181.877 12.9801Z" fill="black"/>
</svg>
